<mxfile host="app.diagrams.net" modified="2023-08-17T11:59:54.080Z" agent="Mozilla/5.0 (Windows NT 10.0; Win64; x64) AppleWebKit/537.36 (KHTML, like Gecko) Chrome/116.0.0.0 Safari/537.36" etag="KovUSy_o0n26_JIA-_BZ" version="21.6.8" type="device">
  <diagram name="Page-1" id="e0lLGbBpj4ry3dMjkgm1">
    <mxGraphModel dx="1257" dy="1783" grid="1" gridSize="10" guides="1" tooltips="1" connect="1" arrows="1" fold="1" page="1" pageScale="1" pageWidth="850" pageHeight="1100" math="0" shadow="0">
      <root>
        <mxCell id="0" />
        <mxCell id="1" parent="0" />
        <mxCell id="4pM2lUkAMPQ87l_hyQ22-8" style="edgeStyle=orthogonalEdgeStyle;rounded=0;orthogonalLoop=1;jettySize=auto;html=1;exitX=0.5;exitY=1;exitDx=0;exitDy=0;" edge="1" parent="1" target="4pM2lUkAMPQ87l_hyQ22-3">
          <mxGeometry relative="1" as="geometry">
            <mxPoint x="403" y="68" as="sourcePoint" />
          </mxGeometry>
        </mxCell>
        <object label="Inicio" id="4pM2lUkAMPQ87l_hyQ22-1">
          <mxCell style="rounded=1;whiteSpace=wrap;html=1;fontFamily=Helvetica;" vertex="1" parent="1">
            <mxGeometry x="365" y="20" width="120" height="60" as="geometry" />
          </mxCell>
        </object>
        <mxCell id="4pM2lUkAMPQ87l_hyQ22-2" value="FIN" style="rounded=1;whiteSpace=wrap;html=1;" vertex="1" parent="1">
          <mxGeometry x="438" y="448" width="120" height="60" as="geometry" />
        </mxCell>
        <mxCell id="4pM2lUkAMPQ87l_hyQ22-9" style="edgeStyle=orthogonalEdgeStyle;rounded=0;orthogonalLoop=1;jettySize=auto;html=1;exitX=0.5;exitY=1;exitDx=0;exitDy=0;" edge="1" parent="1" source="4pM2lUkAMPQ87l_hyQ22-3" target="4pM2lUkAMPQ87l_hyQ22-5">
          <mxGeometry relative="1" as="geometry" />
        </mxCell>
        <mxCell id="4pM2lUkAMPQ87l_hyQ22-3" value="lado" style="shape=parallelogram;perimeter=parallelogramPerimeter;whiteSpace=wrap;html=1;fixedSize=1;" vertex="1" parent="1">
          <mxGeometry x="343" y="158" width="120" height="60" as="geometry" />
        </mxCell>
        <mxCell id="4pM2lUkAMPQ87l_hyQ22-11" style="edgeStyle=orthogonalEdgeStyle;rounded=0;orthogonalLoop=1;jettySize=auto;html=1;exitX=0.5;exitY=1;exitDx=0;exitDy=0;" edge="1" parent="1" source="4pM2lUkAMPQ87l_hyQ22-5" target="4pM2lUkAMPQ87l_hyQ22-6">
          <mxGeometry relative="1" as="geometry" />
        </mxCell>
        <mxCell id="4pM2lUkAMPQ87l_hyQ22-5" value="perimetro = lado * 4&amp;nbsp;" style="rounded=0;whiteSpace=wrap;html=1;" vertex="1" parent="1">
          <mxGeometry x="343" y="248" width="120" height="60" as="geometry" />
        </mxCell>
        <mxCell id="4pM2lUkAMPQ87l_hyQ22-15" style="edgeStyle=orthogonalEdgeStyle;rounded=0;orthogonalLoop=1;jettySize=auto;html=1;exitX=1;exitY=0.5;exitDx=0;exitDy=0;" edge="1" parent="1" source="4pM2lUkAMPQ87l_hyQ22-6">
          <mxGeometry relative="1" as="geometry">
            <mxPoint x="498" y="448" as="targetPoint" />
          </mxGeometry>
        </mxCell>
        <mxCell id="4pM2lUkAMPQ87l_hyQ22-6" value="perimetro" style="shape=document;whiteSpace=wrap;html=1;boundedLbl=1;" vertex="1" parent="1">
          <mxGeometry x="343" y="328" width="120" height="80" as="geometry" />
        </mxCell>
        <mxCell id="4pM2lUkAMPQ87l_hyQ22-18" style="edgeStyle=orthogonalEdgeStyle;rounded=0;orthogonalLoop=1;jettySize=auto;html=1;exitX=0.5;exitY=1;exitDx=0;exitDy=0;" edge="1" parent="1" source="4pM2lUkAMPQ87l_hyQ22-16">
          <mxGeometry relative="1" as="geometry">
            <mxPoint x="690" y="140" as="targetPoint" />
          </mxGeometry>
        </mxCell>
        <mxCell id="4pM2lUkAMPQ87l_hyQ22-16" value="Inicio" style="rounded=1;whiteSpace=wrap;html=1;" vertex="1" parent="1">
          <mxGeometry x="630" y="20" width="120" height="60" as="geometry" />
        </mxCell>
        <mxCell id="4pM2lUkAMPQ87l_hyQ22-24" style="edgeStyle=orthogonalEdgeStyle;rounded=0;orthogonalLoop=1;jettySize=auto;html=1;exitX=0.5;exitY=1;exitDx=0;exitDy=0;entryX=0.5;entryY=0;entryDx=0;entryDy=0;" edge="1" parent="1" source="4pM2lUkAMPQ87l_hyQ22-19" target="4pM2lUkAMPQ87l_hyQ22-20">
          <mxGeometry relative="1" as="geometry" />
        </mxCell>
        <mxCell id="4pM2lUkAMPQ87l_hyQ22-19" value="num1" style="shape=parallelogram;perimeter=parallelogramPerimeter;whiteSpace=wrap;html=1;fixedSize=1;" vertex="1" parent="1">
          <mxGeometry x="630" y="140" width="120" height="60" as="geometry" />
        </mxCell>
        <mxCell id="4pM2lUkAMPQ87l_hyQ22-23" style="edgeStyle=orthogonalEdgeStyle;rounded=0;orthogonalLoop=1;jettySize=auto;html=1;entryX=0.583;entryY=0.083;entryDx=0;entryDy=0;entryPerimeter=0;" edge="1" parent="1" source="4pM2lUkAMPQ87l_hyQ22-20" target="4pM2lUkAMPQ87l_hyQ22-22">
          <mxGeometry relative="1" as="geometry" />
        </mxCell>
        <mxCell id="4pM2lUkAMPQ87l_hyQ22-20" value="num2" style="shape=parallelogram;perimeter=parallelogramPerimeter;whiteSpace=wrap;html=1;fixedSize=1;" vertex="1" parent="1">
          <mxGeometry x="630" y="230" width="120" height="60" as="geometry" />
        </mxCell>
        <mxCell id="4pM2lUkAMPQ87l_hyQ22-32" style="edgeStyle=orthogonalEdgeStyle;rounded=0;orthogonalLoop=1;jettySize=auto;html=1;exitX=0.5;exitY=1;exitDx=0;exitDy=0;" edge="1" parent="1" source="4pM2lUkAMPQ87l_hyQ22-21" target="4pM2lUkAMPQ87l_hyQ22-27">
          <mxGeometry relative="1" as="geometry" />
        </mxCell>
        <mxCell id="4pM2lUkAMPQ87l_hyQ22-21" value="num4" style="shape=parallelogram;perimeter=parallelogramPerimeter;whiteSpace=wrap;html=1;fixedSize=1;" vertex="1" parent="1">
          <mxGeometry x="630" y="410" width="120" height="60" as="geometry" />
        </mxCell>
        <mxCell id="4pM2lUkAMPQ87l_hyQ22-25" style="edgeStyle=orthogonalEdgeStyle;rounded=0;orthogonalLoop=1;jettySize=auto;html=1;exitX=0.5;exitY=1;exitDx=0;exitDy=0;entryX=0.425;entryY=0;entryDx=0;entryDy=0;entryPerimeter=0;" edge="1" parent="1" source="4pM2lUkAMPQ87l_hyQ22-22" target="4pM2lUkAMPQ87l_hyQ22-21">
          <mxGeometry relative="1" as="geometry" />
        </mxCell>
        <mxCell id="4pM2lUkAMPQ87l_hyQ22-22" value="num3" style="shape=parallelogram;perimeter=parallelogramPerimeter;whiteSpace=wrap;html=1;fixedSize=1;" vertex="1" parent="1">
          <mxGeometry x="620" y="320" width="120" height="60" as="geometry" />
        </mxCell>
        <mxCell id="4pM2lUkAMPQ87l_hyQ22-33" style="edgeStyle=orthogonalEdgeStyle;rounded=0;orthogonalLoop=1;jettySize=auto;html=1;exitX=0.5;exitY=1;exitDx=0;exitDy=0;entryX=0.492;entryY=0.117;entryDx=0;entryDy=0;entryPerimeter=0;" edge="1" parent="1" source="4pM2lUkAMPQ87l_hyQ22-27" target="4pM2lUkAMPQ87l_hyQ22-28">
          <mxGeometry relative="1" as="geometry" />
        </mxCell>
        <mxCell id="4pM2lUkAMPQ87l_hyQ22-27" value="suma = num1 + num2 + num3 + num4" style="rounded=0;whiteSpace=wrap;html=1;" vertex="1" parent="1">
          <mxGeometry x="630" y="508" width="120" height="60" as="geometry" />
        </mxCell>
        <mxCell id="4pM2lUkAMPQ87l_hyQ22-34" style="edgeStyle=orthogonalEdgeStyle;rounded=0;orthogonalLoop=1;jettySize=auto;html=1;exitX=0.5;exitY=1;exitDx=0;exitDy=0;entryX=0.5;entryY=0;entryDx=0;entryDy=0;" edge="1" parent="1" source="4pM2lUkAMPQ87l_hyQ22-28" target="4pM2lUkAMPQ87l_hyQ22-29">
          <mxGeometry relative="1" as="geometry" />
        </mxCell>
        <mxCell id="4pM2lUkAMPQ87l_hyQ22-28" value="promedio = suma / 4" style="rounded=0;whiteSpace=wrap;html=1;" vertex="1" parent="1">
          <mxGeometry x="630" y="610" width="120" height="60" as="geometry" />
        </mxCell>
        <mxCell id="4pM2lUkAMPQ87l_hyQ22-35" style="edgeStyle=orthogonalEdgeStyle;rounded=0;orthogonalLoop=1;jettySize=auto;html=1;exitX=0;exitY=0.75;exitDx=0;exitDy=0;entryX=0.5;entryY=0;entryDx=0;entryDy=0;" edge="1" parent="1" source="4pM2lUkAMPQ87l_hyQ22-29" target="4pM2lUkAMPQ87l_hyQ22-31">
          <mxGeometry relative="1" as="geometry" />
        </mxCell>
        <mxCell id="4pM2lUkAMPQ87l_hyQ22-29" value="suma" style="shape=document;whiteSpace=wrap;html=1;boundedLbl=1;" vertex="1" parent="1">
          <mxGeometry x="630" y="720" width="120" height="80" as="geometry" />
        </mxCell>
        <mxCell id="4pM2lUkAMPQ87l_hyQ22-42" style="edgeStyle=orthogonalEdgeStyle;rounded=0;orthogonalLoop=1;jettySize=auto;html=1;exitX=0;exitY=0.5;exitDx=0;exitDy=0;entryX=0.5;entryY=-0.1;entryDx=0;entryDy=0;entryPerimeter=0;" edge="1" parent="1" source="4pM2lUkAMPQ87l_hyQ22-31" target="4pM2lUkAMPQ87l_hyQ22-41">
          <mxGeometry relative="1" as="geometry" />
        </mxCell>
        <mxCell id="4pM2lUkAMPQ87l_hyQ22-31" value="promedio" style="shape=document;whiteSpace=wrap;html=1;boundedLbl=1;" vertex="1" parent="1">
          <mxGeometry x="630" y="840" width="120" height="80" as="geometry" />
        </mxCell>
        <mxCell id="4pM2lUkAMPQ87l_hyQ22-45" style="edgeStyle=orthogonalEdgeStyle;rounded=0;orthogonalLoop=1;jettySize=auto;html=1;exitX=0.5;exitY=1;exitDx=0;exitDy=0;entryX=0.5;entryY=0;entryDx=0;entryDy=0;" edge="1" parent="1" source="4pM2lUkAMPQ87l_hyQ22-36" target="4pM2lUkAMPQ87l_hyQ22-38">
          <mxGeometry relative="1" as="geometry" />
        </mxCell>
        <mxCell id="4pM2lUkAMPQ87l_hyQ22-36" value="Inicio" style="rounded=0;whiteSpace=wrap;html=1;" vertex="1" parent="1">
          <mxGeometry x="60" y="20" width="120" height="60" as="geometry" />
        </mxCell>
        <mxCell id="4pM2lUkAMPQ87l_hyQ22-47" style="edgeStyle=orthogonalEdgeStyle;rounded=0;orthogonalLoop=1;jettySize=auto;html=1;exitX=0.5;exitY=1;exitDx=0;exitDy=0;entryX=0.5;entryY=0;entryDx=0;entryDy=0;" edge="1" parent="1" source="4pM2lUkAMPQ87l_hyQ22-37" target="4pM2lUkAMPQ87l_hyQ22-40">
          <mxGeometry relative="1" as="geometry" />
        </mxCell>
        <mxCell id="4pM2lUkAMPQ87l_hyQ22-37" value="valor_por_hora" style="shape=parallelogram;perimeter=parallelogramPerimeter;whiteSpace=wrap;html=1;fixedSize=1;" vertex="1" parent="1">
          <mxGeometry x="60" y="210" width="120" height="60" as="geometry" />
        </mxCell>
        <mxCell id="4pM2lUkAMPQ87l_hyQ22-46" style="edgeStyle=orthogonalEdgeStyle;rounded=0;orthogonalLoop=1;jettySize=auto;html=1;exitX=0.5;exitY=1;exitDx=0;exitDy=0;entryX=0.5;entryY=0;entryDx=0;entryDy=0;" edge="1" parent="1" source="4pM2lUkAMPQ87l_hyQ22-38" target="4pM2lUkAMPQ87l_hyQ22-37">
          <mxGeometry relative="1" as="geometry" />
        </mxCell>
        <mxCell id="4pM2lUkAMPQ87l_hyQ22-38" value="cantidad_horas" style="shape=parallelogram;perimeter=parallelogramPerimeter;whiteSpace=wrap;html=1;fixedSize=1;" vertex="1" parent="1">
          <mxGeometry x="60" y="120" width="120" height="60" as="geometry" />
        </mxCell>
        <mxCell id="4pM2lUkAMPQ87l_hyQ22-48" style="edgeStyle=orthogonalEdgeStyle;rounded=0;orthogonalLoop=1;jettySize=auto;html=1;exitX=0.5;exitY=1;exitDx=0;exitDy=0;entryX=0.5;entryY=0;entryDx=0;entryDy=0;" edge="1" parent="1" source="4pM2lUkAMPQ87l_hyQ22-40" target="4pM2lUkAMPQ87l_hyQ22-43">
          <mxGeometry relative="1" as="geometry" />
        </mxCell>
        <mxCell id="4pM2lUkAMPQ87l_hyQ22-40" value="sueldo = valor_por_hora * cantidad_horas" style="rounded=0;whiteSpace=wrap;html=1;" vertex="1" parent="1">
          <mxGeometry x="60" y="308" width="120" height="60" as="geometry" />
        </mxCell>
        <mxCell id="4pM2lUkAMPQ87l_hyQ22-41" value="FIN" style="rounded=1;whiteSpace=wrap;html=1;" vertex="1" parent="1">
          <mxGeometry x="630" y="950" width="120" height="60" as="geometry" />
        </mxCell>
        <mxCell id="4pM2lUkAMPQ87l_hyQ22-43" value="FIN" style="rounded=1;whiteSpace=wrap;html=1;" vertex="1" parent="1">
          <mxGeometry x="60" y="430" width="120" height="60" as="geometry" />
        </mxCell>
        <mxCell id="4pM2lUkAMPQ87l_hyQ22-49" value="Ejercicio 2" style="text;strokeColor=none;fillColor=none;html=1;fontSize=24;fontStyle=1;verticalAlign=middle;align=center;" vertex="1" parent="1">
          <mxGeometry x="375" y="-40" width="100" height="40" as="geometry" />
        </mxCell>
        <mxCell id="4pM2lUkAMPQ87l_hyQ22-50" value="Ejercicio 3" style="text;strokeColor=none;fillColor=none;html=1;fontSize=24;fontStyle=1;verticalAlign=middle;align=center;" vertex="1" parent="1">
          <mxGeometry x="640" y="-40" width="100" height="40" as="geometry" />
        </mxCell>
        <mxCell id="4pM2lUkAMPQ87l_hyQ22-51" value="Ejercicio 4" style="text;strokeColor=none;fillColor=none;html=1;fontSize=24;fontStyle=1;verticalAlign=middle;align=center;" vertex="1" parent="1">
          <mxGeometry x="70" y="-40" width="100" height="40" as="geometry" />
        </mxCell>
        <mxCell id="4pM2lUkAMPQ87l_hyQ22-58" style="edgeStyle=orthogonalEdgeStyle;rounded=0;orthogonalLoop=1;jettySize=auto;html=1;exitX=0.5;exitY=1;exitDx=0;exitDy=0;" edge="1" parent="1" source="4pM2lUkAMPQ87l_hyQ22-52" target="4pM2lUkAMPQ87l_hyQ22-54">
          <mxGeometry relative="1" as="geometry" />
        </mxCell>
        <mxCell id="4pM2lUkAMPQ87l_hyQ22-52" value="Inicio" style="rounded=1;whiteSpace=wrap;html=1;" vertex="1" parent="1">
          <mxGeometry x="100" y="-800" width="120" height="60" as="geometry" />
        </mxCell>
        <mxCell id="4pM2lUkAMPQ87l_hyQ22-60" style="edgeStyle=orthogonalEdgeStyle;rounded=0;orthogonalLoop=1;jettySize=auto;html=1;exitX=0.5;exitY=1;exitDx=0;exitDy=0;entryX=0.5;entryY=0;entryDx=0;entryDy=0;" edge="1" parent="1" source="4pM2lUkAMPQ87l_hyQ22-53" target="4pM2lUkAMPQ87l_hyQ22-55">
          <mxGeometry relative="1" as="geometry" />
        </mxCell>
        <mxCell id="4pM2lUkAMPQ87l_hyQ22-53" value="cantidad" style="shape=parallelogram;perimeter=parallelogramPerimeter;whiteSpace=wrap;html=1;fixedSize=1;" vertex="1" parent="1">
          <mxGeometry x="100" y="-620" width="120" height="60" as="geometry" />
        </mxCell>
        <mxCell id="4pM2lUkAMPQ87l_hyQ22-59" style="edgeStyle=orthogonalEdgeStyle;rounded=0;orthogonalLoop=1;jettySize=auto;html=1;exitX=0.5;exitY=1;exitDx=0;exitDy=0;entryX=0.5;entryY=0;entryDx=0;entryDy=0;" edge="1" parent="1" source="4pM2lUkAMPQ87l_hyQ22-54" target="4pM2lUkAMPQ87l_hyQ22-53">
          <mxGeometry relative="1" as="geometry" />
        </mxCell>
        <mxCell id="4pM2lUkAMPQ87l_hyQ22-54" value="precio" style="shape=parallelogram;perimeter=parallelogramPerimeter;whiteSpace=wrap;html=1;fixedSize=1;" vertex="1" parent="1">
          <mxGeometry x="100" y="-710" width="120" height="60" as="geometry" />
        </mxCell>
        <mxCell id="4pM2lUkAMPQ87l_hyQ22-61" style="edgeStyle=orthogonalEdgeStyle;rounded=0;orthogonalLoop=1;jettySize=auto;html=1;exitX=0.5;exitY=1;exitDx=0;exitDy=0;entryX=0.5;entryY=0;entryDx=0;entryDy=0;" edge="1" parent="1" source="4pM2lUkAMPQ87l_hyQ22-55" target="4pM2lUkAMPQ87l_hyQ22-56">
          <mxGeometry relative="1" as="geometry" />
        </mxCell>
        <mxCell id="4pM2lUkAMPQ87l_hyQ22-55" value="total = precio * cantidad" style="rounded=0;whiteSpace=wrap;html=1;" vertex="1" parent="1">
          <mxGeometry x="100" y="-530" width="120" height="60" as="geometry" />
        </mxCell>
        <mxCell id="4pM2lUkAMPQ87l_hyQ22-62" style="edgeStyle=orthogonalEdgeStyle;rounded=0;orthogonalLoop=1;jettySize=auto;html=1;exitX=0;exitY=0.5;exitDx=0;exitDy=0;entryX=0.5;entryY=0;entryDx=0;entryDy=0;" edge="1" parent="1" source="4pM2lUkAMPQ87l_hyQ22-56" target="4pM2lUkAMPQ87l_hyQ22-57">
          <mxGeometry relative="1" as="geometry" />
        </mxCell>
        <mxCell id="4pM2lUkAMPQ87l_hyQ22-56" value="total" style="shape=document;whiteSpace=wrap;html=1;boundedLbl=1;" vertex="1" parent="1">
          <mxGeometry x="100" y="-420" width="120" height="80" as="geometry" />
        </mxCell>
        <mxCell id="4pM2lUkAMPQ87l_hyQ22-57" value="Fin" style="rounded=1;whiteSpace=wrap;html=1;" vertex="1" parent="1">
          <mxGeometry x="100" y="-300" width="120" height="60" as="geometry" />
        </mxCell>
        <mxCell id="4pM2lUkAMPQ87l_hyQ22-63" value="Ejercicio 1" style="text;strokeColor=none;fillColor=none;html=1;fontSize=24;fontStyle=1;verticalAlign=middle;align=center;" vertex="1" parent="1">
          <mxGeometry x="110" y="-850" width="100" height="40" as="geometry" />
        </mxCell>
      </root>
    </mxGraphModel>
  </diagram>
</mxfile>
